<?xml version="1.0" standalone="no"?>
<!DOCTYPE svg PUBLIC "-//W3C//DTD SVG 20010904//EN"
 "http://www.w3.org/TR/2001/REC-SVG-20010904/DTD/svg10.dtd">
<svg version="1.0" xmlns="http://www.w3.org/2000/svg"
 width="512.000000pt" height="512.000000pt" viewBox="0 0 512.000000 512.000000"
 preserveAspectRatio="xMidYMid meet">

<g transform="translate(0.000000,512.000000) scale(0.100000,-0.100000)"
fill="#000000" stroke="none">
<path d="M0 2560 l0 -2560 2560 0 2560 0 0 2560 0 2560 -2560 0 -2560 0 0
-2560z m2795 1729 c251 -37 511 -141 733 -292 98 -66 281 -222 312 -265 35
-48 124 -147 131 -145 3 1 6 -3 5 -10 0 -7 25 -51 57 -99 245 -369 339 -844
251 -1273 -35 -175 -137 -417 -238 -569 -30 -45 -92 -127 -139 -182 -47 -56
-84 -105 -81 -108 2 -3 1 -4 -2 -2 -3 3 -49 -33 -102 -79 -606 -534 -1440
-599 -2102 -165 -52 35 -117 81 -145 103 -78 63 -232 216 -282 280 -25 32 -49
54 -55 51 -6 -4 -8 -2 -5 3 4 6 -16 45 -44 88 -108 163 -205 397 -243 586 -85
417 14 924 248 1278 30 46 53 88 49 94 -3 6 -2 7 4 4 10 -7 90 91 85 106 -1 5
2 6 7 3 11 -7 33 19 23 28 -4 4 0 6 8 4 9 -2 14 4 14 14 -1 10 2 16 5 15 11
-3 136 114 133 125 -1 5 2 7 7 4 5 -3 28 10 52 29 23 20 50 40 61 46 10 5 16
14 14 18 -3 4 1 8 8 8 7 0 33 14 58 31 66 45 240 136 330 171 268 106 564 141
843 100z m-1475 -463 c0 -2 -8 -10 -17 -17 -16 -13 -17 -12 -4 4 13 16 21 21
21 13z"/>
<path d="M2125 3593 c-16 -3 -49 -21 -73 -40 l-42 -35 0 -399 1 -399 255 0
256 0 -4 395 -3 396 -40 34 c-22 19 -56 39 -75 45 -34 10 -214 12 -275 3z
m313 -185 l3 -28 -186 0 c-167 0 -186 2 -181 16 3 9 6 22 6 30 0 12 28 14 178
12 l177 -3 3 -27z"/>
<path d="M2775 3591 c-60 -5 -76 -11 -112 -39 -22 -19 -44 -44 -47 -55 -3 -12
-6 -192 -6 -399 l0 -378 258 0 257 0 -3 399 -2 400 -41 34 c-22 19 -54 37 -71
41 -35 7 -129 6 -233 -3z m275 -181 l0 -30 -175 0 -175 0 0 24 c0 32 8 33 198
35 l152 1 0 -30z"/>
<path d="M1454 3141 c-137 -84 -236 -415 -220 -738 13 -281 90 -508 194 -574
45 -28 49 -29 184 -29 l138 0 38 36 c26 25 30 32 13 24 -31 -16 -83 -5 -114
24 -55 51 -116 207 -143 367 -22 131 -15 363 15 490 52 225 153 373 242 355
26 -5 28 -4 17 13 -26 43 -59 51 -200 51 -112 0 -138 -3 -164 -19z"/>
<path d="M3350 3138 c-46 -32 -46 -43 -1 -43 50 -1 84 -24 126 -88 98 -148
156 -480 126 -721 -24 -185 -84 -342 -157 -405 -32 -28 -43 -32 -81 -29 l-45
3 31 -27 c31 -28 33 -28 169 -28 162 0 203 14 251 80 87 121 151 429 137 660
-12 185 -78 430 -141 523 -15 21 -45 51 -67 67 -41 30 -42 30 -178 30 -126 0
-140 -2 -170 -22z"/>
<path d="M1810 2997 c-35 -18 -85 -87 -110 -153 -38 -102 -51 -186 -57 -354
-4 -143 -2 -179 17 -270 31 -156 84 -257 147 -281 75 -28 139 54 162 210 7 41
14 78 17 82 3 5 -9 9 -26 9 -26 0 -33 -5 -42 -30 -36 -105 -124 -9 -148 162
-27 187 36 416 109 393 11 -3 23 -15 26 -26 5 -14 15 -19 41 -19 l35 0 -7 53
c-15 126 -48 202 -99 223 -41 17 -34 17 -65 1z"/>
<path d="M3241 2985 c-36 -31 -67 -108 -79 -199 l-9 -66 30 0 c22 0 38 9 58
33 l27 32 22 -20 c54 -49 82 -155 83 -310 0 -138 -41 -270 -90 -289 -21 -8
-62 19 -73 50 -7 18 -17 24 -38 24 l-28 0 17 -89 c21 -106 37 -146 72 -183 85
-90 189 0 238 207 72 303 -3 737 -142 819 -37 22 -52 20 -88 -9z"/>
<path d="M2535 2480 l0 -240 36 0 36 0 6 -182 c4 -99 7 -243 7 -319 l0 -138
46 -37 c53 -44 93 -53 244 -53 110 0 123 3 179 51 l31 27 0 324 c0 297 -1 325
-17 331 -9 4 -125 6 -258 5 l-240 -1 -3 236 -2 236 -33 0 -32 0 0 -240z m515
-784 c0 -22 -4 -23 -92 -30 -200 -14 -258 -7 -258 30 l0 24 175 0 175 0 0 -24z"/>
<path d="M2150 2465 l0 -135 45 0 45 0 0 135 0 135 -45 0 -45 0 0 -135z"/>
<path d="M2954 2539 c3 -34 6 -95 6 -135 l0 -74 40 0 40 0 0 135 0 135 -46 0
-47 0 7 -61z"/>
<path d="M2038 2243 l-28 -4 0 -320 c0 -198 4 -328 10 -339 6 -11 30 -31 54
-45 40 -23 51 -25 177 -25 140 0 141 0 227 55 l32 20 0 323 c0 177 0 325 0
330 0 7 -425 12 -472 5z m392 -548 c0 -32 -27 -37 -210 -33 l-145 3 -3 28 -3
27 180 0 181 0 0 -25z"/>
</g>
</svg>
